#!OML:ASF G:\JayActor3\Patient Classification 1\Patient 1\Session 5\male.ASF
:FULLY-SPECIFIED
:DEGREES
1591
root -15.7193 17.5707 -13.0449 -193.906 -59.1486 186.243
lowerback 10.2227 -0.987382 5.4144
upperback 2.64969 -0.894154 -0.568747
thorax -3.05093 -0.525433 -3.52686
lowerneck -1.36628 0.5334 2.46385
upperneck 7.02603 0.27129 3.28845
head 2.4494 0.234401 0.628573
rclavicle 8.62166e-014 -2.10712e-014
rhumerus -42.5231 -22.1691 -74.9532
rradius 15.45
rwrist 22.0992
rhand -21.7367 -8.94013
rfingers 7.12502
rthumb 4.66302 -38.8688
lclavicle 8.62166e-014 -2.10712e-014
lhumerus -38.6844 30.0896 66.9353
lradius 6.94994
lwrist -8.22029
lhand -20.453 12.7169
lfingers 7.12502
lthumb 5.90245 42.6147
rfemur 21.6739 0.854162 33.17
rtibia -4.77083e-015
rfoot -5.96894 -18.4781
rtoes 8.54909
lfemur -70.1826 48.2028 -3.61402
ltibia 144.649
lfoot -29.5271 -27.7666
ltoes -25.0271
1592
root -15.7933 17.5615 -13.0792 -193.798 -59.1493 186.3
lowerback 10.1557 -0.990733 5.43001
upperback 2.60425 -0.896605 -0.559248
thorax -3.06182 -0.526752 -3.5258
lowerneck -1.36423 0.52797 2.471
upperneck 7.04399 0.265999 3.24826
head 2.45498 0.231241 0.614526
rclavicle 7.01958e-014 1.19271e-015
rhumerus -42.5703 -22.1915 -74.9419
rradius 15.4047
rwrist 22.1576
rhand -21.6388 -9.01537
rfingers 7.12502
rthumb 4.75758 -38.942
lclavicle 7.01958e-014 1.19271e-015
lhumerus -38.6368 30.0451 66.9408
lradius 6.98559
lwrist -8.17355
lhand -20.4729 12.6812
lfingers 7.12502
lthumb 5.88322 42.5795
rfemur 21.812 0.78309 33.1476
rtibia 4.77083e-015
rfoot -6.06237 -18.3354
rtoes 8.3071
lfemur -70.5409 48.0937 -4.68364
ltibia 144.093
lfoot -29.6121 -27.0867
ltoes -25.014
1593
root -15.8677 17.5521 -13.1136 -193.69 -59.1736 186.341
lowerback 10.1013 -0.998737 5.43012
upperback 2.56061 -0.906325 -0.549428
thorax -3.07835 -0.531802 -3.51459
lowerneck -1.34838 0.527184 2.48079
upperneck 7.04935 0.268637 3.19987
head 2.45378 0.231602 0.597475
rclavicle 5.37402e-014 8.34896e-015
rhumerus -42.6079 -22.1772 -74.9556
rradius 15.374
rwrist 22.1947
rhand -21.5509 -9.05384
rfingers 7.12502
rthumb 4.84243 -38.9785
lclavicle 5.37402e-014 8.34896e-015
lhumerus -38.5976 29.9963 66.9505
lradius 7.00584
lwrist -8.15129
lhand -20.469 12.6562
lfingers 7.12502
lthumb 5.88704 42.5544
rfemur 21.9651 0.688737 33.1115
rtibia -1.11319e-014
rfoot -6.16056 -18.2018
rtoes 8.03582
lfemur -70.9069 47.9628 -5.83857
ltibia 143.47
lfoot -29.7074 -26.2866
ltoes -24.9552
1594
root -15.9426 17.5423 -13.1481 -193.609 -59.2252 186.394
lowerback 10.0566 -1.01405 5.4295
upperback 2.52388 -0.925762 -0.536264
thorax -3.09387 -0.541689 -3.49817
lowerneck -1.33326 0.52814 2.49019
upperneck 7.05004 0.274064 3.14976
head 2.45116 0.233291 0.579993
rclavicle -3.32529e-014 1.35174e-014
rhumerus -42.6328 -22.151 -74.9798
rradius 15.3533
rwrist 22.2201
rhand -21.4824 -9.0514
rfingers 7.12502
rthumb 4.90855 -38.9745
lclavicle -3.32529e-014 1.35174e-014
lhumerus -38.56 29.9454 66.9704
lradius 7.0107
lwrist -8.14912
lhand -20.4484 12.6483
lfingers 7.12502
lthumb 5.90689 42.5459
rfemur 22.135 0.563828 33.0731
rtibia -4.29375e-014
rfoot -6.2616 -18.0732
rtoes 7.75018
lfemur -72.0418 45.0574 -8.10888
ltibia 142.771
lfoot -28.5594 -24.3084
ltoes -24.8455
1595
root -16.0181 17.5321 -13.1827 -193.576 -59.3012 186.482
lowerback 10.0184 -1.0356 5.44441
upperback 2.49661 -0.952131 -0.517862
thorax -3.10389 -0.554997 -3.48416
lowerneck -1.31233 0.530764 2.48775
upperneck 7.03811 0.281806 3.11639
head 2.44327 0.236033 0.569819
rclavicle 2.24875e-014 8.34896e-015
rhumerus -42.6505 -22.1352 -75.0013
rradius 15.3408
rwrist 22.2382
rhand -21.4325 -9.03072
rfingers 7.12502
rthumb 4.95678 -38.9527
lclavicle 2.24875e-014 8.34896e-015
lhumerus -38.5121 29.8894 67.0072
lradius 6.99547
lwrist -8.14578
lhand -20.4275 12.6469
lfingers 7.12502
lthumb 5.92712 42.544
rfemur 22.3221 0.408281 33.0445
rtibia -6.36111e-015
rfoot -6.35468 -17.9447
rtoes 7.46468
lfemur -72.9875 41.9472 -10.2144
ltibia 141.983
lfoot -27.4567 -22.1528
ltoes -24.6774
1596
root -16.0943 17.5215 -13.2173 -193.601 -59.398 186.622
lowerback 9.98045 -1.06207 5.48663
upperback 2.4779 -0.982739 -0.492836
thorax -3.10571 -0.570376 -3.47816
lowerneck -1.30926 0.529446 2.47807
upperneck 7.04029 0.282381 3.09439
head 2.44337 0.235677 0.564485
rclavicle 6.11884e-015 1.94809e-014
rhumerus -42.6618 -22.1306 -75.0212
rradius 15.337
rwrist 22.2363
rhand -21.4075 -9.0144
rfingers 7.12502
rthumb 4.98088 -38.9359
lclavicle 6.11884e-015 1.94809e-014
lhumerus -38.4523 29.8246 67.0624
lradius 6.96479
lwrist -8.14194
lhand -20.4151 12.6515
lfingers 7.12502
lthumb 5.93905 42.5483
rfemur 22.5215 0.224917 33.0331
rtibia 5.725e-014
rfoot -6.43725 -17.8106
rtoes 7.18258
lfemur -73.7479 38.6956 -12.1204
ltibia 141.096
lfoot -26.4071 -19.9036
ltoes -24.4118
